<svg width="512" height="367" viewBox="0 0 512 367" fill="none" xmlns="http://www.w3.org/2000/svg">
<path d="M475.4 73.8001H359.6L347.4 37.2001C347.4 17.0001 331 0.600098 310.8 0.600098H201.1C180.9 0.600098 164.5 17.0001 164.5 37.2001L152.3 73.8001H36.6C16.4 73.8001 0 90.2001 0 110.4V329.8C0 350 16.4 366.4 36.6 366.4H475.5C495.7 366.4 512.1 350 512.1 329.8V110.4C512 90.2001 495.6 73.8001 475.4 73.8001ZM256 329.8C195.4 329.8 146.3 280.7 146.3 220.1C146.3 159.5 195.4 110.4 256 110.4C316.6 110.4 365.7 159.5 365.7 220.1C365.7 280.6 316.6 329.8 256 329.8ZM475.4 146.9C475.4 157 467.2 165.2 457.1 165.2H438.8C428.7 165.2 420.5 157 420.5 146.9V128.6C420.5 118.5 428.7 110.3 438.8 110.3H457.1C467.2 110.3 475.4 118.5 475.4 128.6V146.9ZM256 146.9C215.6 146.9 182.9 179.6 182.9 220C182.9 260.4 215.6 293.1 256 293.1C296.4 293.1 329.1 260.4 329.1 220C329.1 179.6 296.4 146.9 256 146.9Z" fill="#BAD1D1"/>
</svg>
