<svg width="449" height="176" viewBox="0 0 449 176" fill="none" xmlns="http://www.w3.org/2000/svg">
<path d="M43 109H91.5C120.5 109 106.5 162.5 127.5 160.5C148.5 158.5 148 77.0002 173.5 77C199 76.9998 197 172 217.5 172C238 172 239.5 31.9998 262 32C284.5 32.0002 293 156.5 311 156.5C329 156.5 342.5 102.5 358.5 102.5C374.5 102.5 370 129 389 129H449" stroke="#E86A92" stroke-width="8"/>
<path d="M0 81.0001H48.5C77.5 81.0001 63.5 134.5 84.5 132.5C105.5 130.5 105 49.0002 130.5 49C156 48.9998 154 144 174.5 144C195 144 196.5 3.99984 219 4C241.5 4.00016 250 128.5 268 128.5C286 128.5 299.5 74.5001 315.5 74.5C331.5 74.4998 327 101 346 101H406" stroke="#41E2BA" stroke-width="8"/>
<path d="M17.5 94.5H66C95 94.5 81 148 102 146C123 144 122.5 62.5001 148 62.4999C173.5 62.4997 171.5 157.5 192 157.5C212.5 157.5 214 17.4997 236.5 17.4999C259 17.5 267.5 142 285.5 142C303.5 142 317 88 333 87.9999C349 87.9997 344.5 114.5 363.5 114.5H423.5" stroke="#F7E733" stroke-width="8"/>
</svg>
